<svg xmlns="http://www.w3.org/2000/svg" width="24" height="24" viewBox="0 0 24 24"><g opacity="1"><g transform="matrix(1 0 0 1 0 0)" opacity="1"><path d="M0 12 C0 5.37258339 5.37258339 0 12 0 L12 0 C18.6274166 0 24 5.37258339 24 12 L24 12 C24 18.6274166 18.6274166 24 12 24 L12 24 C5.37258339 24 0 18.6274166 0 12 L0 12 Z" fill="rgb(255,129.199998,66.2999976)" fill-opacity="1" fill-rule="nonzero"/></g><g transform="matrix(1 0 0 1 4 4)" opacity="1"><g transform="matrix(1 0 0 1 3.33333325 4.66666651)" opacity="1"><path d="M0.707106769 2.62622643 C0.316582441 2.23570204 -0.316582531 2.23570204 -0.707106829 2.62622643 C-1.0976311 3.01675081 -1.0976311 3.6499157 -0.707106769 4.04044008 L0.707106769 2.62622643 Z M3.33333349 6.66666603 L2.62622666 7.3737731 C3.01675105 7.76429749 3.64991593 7.76429749 4.04044008 7.3737731 L3.33333349 6.66666603 Z M10.7071066 0.707106829 C11.0976315 0.316582531 11.0976315 -0.316582441 10.7071075 -0.707106769 C10.3165827 -1.0976311 9.68341827 -1.0976311 9.29289341 -0.707106829 L10.7071066 0.707106829 Z M-0.707106769 4.04044008 L2.62622666 7.3737731 L4.04044008 5.95955944 L0.707106769 2.62622643 L-0.707106769 4.04044008 Z M4.04044008 7.3737731 L10.7071066 0.707106829 L9.29289341 -0.707106829 L2.62622666 5.95955944 L4.04044008 7.3737731 Z" fill="rgb(255,255,255)" fill-opacity="1" fill-rule="nonzero"/></g></g></g></svg>