<svg xmlns="http://www.w3.org/2000/svg" width="24" height="24" viewBox="0 0 24 24"><g opacity="1"><g transform="matrix(1 0 0 1 6 9)" opacity="1"><path d="M-0.707106769 5.29289341 C-1.0976311 5.68341732 -1.0976311 6.31658268 -0.707106769 6.70710659 C-0.316582501 7.09763098 0.316582501 7.09763098 0.707106769 6.70710659 L-0.707106769 5.29289341 Z M6 0 L6.70710659 -0.707106769 C6.31658268 -1.0976311 5.68341732 -1.0976311 5.29289341 -0.707106769 L6 0 Z M11.2928934 6.70710659 C11.6834173 7.09763098 12.3165827 7.09763098 12.7071066 6.70710659 C13.0976315 6.31658268 13.0976315 5.68341732 12.7071066 5.29289341 L11.2928934 6.70710659 Z M0.707106769 6.70710659 L6.70710659 0.707106769 L5.29289341 -0.707106769 L-0.707106769 5.29289341 L0.707106769 6.70710659 Z M5.29289341 0.707106769 L11.2928934 6.70710659 L12.7071066 5.29289341 L6.70710659 -0.707106769 L5.29289341 0.707106769 Z" fill="rgb(17.0000009,24.0000005,39.0000015)" fill-opacity="1" fill-rule="nonzero"/></g></g></svg>