<svg xmlns="http://www.w3.org/2000/svg" width="24" height="24" viewBox="0 0 24 24"><g opacity="1"><g transform="matrix(1 0 0 1 5 6)" opacity="1"><path d="M4 -0.75 C3.58578634 -0.75 3.25 -0.414213568 3.25 0 C3.25 0.414213568 3.58578634 0.75 4 0.75 L4 -0.75 Z M15 0.75 C15.4142132 0.75 15.75 0.414213568 15.75 0 C15.75 -0.414213568 15.4142132 -0.75 15 -0.75 L15 0.75 Z M4 5.25 C3.58578634 5.25 3.25 5.58578634 3.25 6 C3.25 6.41421366 3.58578634 6.75 4 6.75 L4 5.25 Z M15 6.75 C15.4142132 6.75 15.75 6.41421366 15.75 6 C15.75 5.58578634 15.4142132 5.25 15 5.25 L15 6.75 Z M4 11.25 C3.58578634 11.25 3.25 11.5857868 3.25 12 C3.25 12.4142132 3.58578634 12.75 4 12.75 L4 11.25 Z M15 12.75 C15.4142132 12.75 15.75 12.4142132 15.75 12 C15.75 11.5857868 15.4142132 11.25 15 11.25 L15 12.75 Z M0.75 0 C0.75 -0.414213568 0.414213568 -0.75 0 -0.75 C-0.414213568 -0.75 -0.75 -0.414213568 -0.75 0 L0.75 0 Z M-0.75 0.0100002289 C-0.75 0.424213797 -0.414213568 0.760000229 0 0.760000229 C0.414213568 0.760000229 0.75 0.424213797 0.75 0.0100002289 L-0.75 0.0100002289 Z M0.75 6 C0.75 5.58578634 0.414213568 5.25 0 5.25 C-0.414213568 5.25 -0.75 5.58578634 -0.75 6 L0.75 6 Z M-0.75 6.01000023 C-0.75 6.42421389 -0.414213568 6.76000023 0 6.76000023 C0.414213568 6.76000023 0.75 6.42421389 0.75 6.01000023 L-0.75 6.01000023 Z M0.75 12 C0.75 11.5857868 0.414213568 11.25 0 11.25 C-0.414213568 11.25 -0.75 11.5857868 -0.75 12 L0.75 12 Z M-0.75 12.0100002 C-0.75 12.4242134 -0.414213568 12.7600002 0 12.7600002 C0.414213568 12.7600002 0.75 12.4242134 0.75 12.0100002 L-0.75 12.0100002 Z M4 0.75 L15 0.75 L15 -0.75 L4 -0.75 L4 0.75 Z M15 -0.75 L4 -0.75 L4 0.75 L15 0.75 L15 -0.75 Z M4 6.75 L15 6.75 L15 5.25 L4 5.25 L4 6.75 Z M15 5.25 L4 5.25 L4 6.75 L15 6.75 L15 5.25 Z M4 12.75 L15 12.75 L15 11.25 L4 11.25 L4 12.75 Z M15 11.25 L4 11.25 L4 12.75 L15 12.75 L15 11.25 Z M-0.75 0 L-0.75 0.0100002289 L0.75 0.0100002289 L0.75 0 L-0.75 0 Z M0.75 0.0100002289 L0.75 0 L-0.75 0 L-0.75 0.0100002289 L0.75 0.0100002289 Z M-0.75 6 L-0.75 6.01000023 L0.75 6.01000023 L0.75 6 L-0.75 6 Z M0.75 6.01000023 L0.75 6 L-0.75 6 L-0.75 6.01000023 L0.75 6.01000023 Z M-0.75 12 L-0.75 12.0100002 L0.75 12.0100002 L0.75 12 L-0.75 12 Z" fill="rgb(17.0000009,24.0000005,39.0000015)" fill-opacity="1" fill-rule="nonzero"/></g></g></svg>